<?xml version="1.0" encoding="UTF-8"?>
<svg viewBox="0 0 48 48" version="1.1" xmlns="http://www.w3.org/2000/svg" xmlns:xlink="http://www.w3.org/1999/xlink">
    <!-- Generator: Sketch 51.3 (57544) - http://www.bohemiancoding.com/sketch -->
    <title>linkedin_icon</title>
    <desc>Created with Sketch.</desc>
    <defs>
        <polygon id="path-1" points="0 19.8398 21.56 19.8398 21.56 -0.0002 0 -0.0002"></polygon>
    </defs>
    <g id="Page-1" stroke="none" stroke-width="1" fill="none" fill-rule="evenodd">
        <g id="Home-hover" transform="translate(-1325.000000, -3774.000000)">
            <g id="Group-3" transform="translate(525.000000, 3726.000000)">
                <g id="linkedin_icon" transform="translate(800.000000, 48.000000)">
                    <circle id="Oval" fill="#000000" fill-rule="nonzero" cx="24" cy="24" r="24"></circle>
                    <g id="Group-5" transform="translate(13.000000, 14.000000)">
                        <path d="M12.4434,7.9687 L12.4434,7.9237 C12.4334,7.9397 12.4224,7.9547 12.4134,7.9687 L12.4434,7.9687 Z" id="Fill-1" fill="#1D1D1B"></path>
                        <mask id="mask-2" fill="white">
                            <use xlink:href="#path-1"></use>
                        </mask>
                        <g id="Clip-4"></g>
                        <path d="M0.239,19.8398 L4.813,19.8398 L4.813,6.0718 L0.239,6.0718 L0.239,19.8398 Z M2.291,-0.0002 C3.676,-0.0002 4.529,0.9998 4.557,2.3128 C4.557,3.5958 3.676,4.6248 2.265,4.6248 L2.238,4.6248 C0.878,4.6248 0,3.5958 0,2.3128 C0,0.9998 0.904,-0.0002 2.291,-0.0002 Z M21.56,19.8398 L17.051,19.8398 L17.051,12.6488 C17.051,10.8438 16.538,9.6098 14.907,9.6098 C13.66,9.6098 12.916,10.4418 12.592,11.2438 C12.473,11.5308 12.443,11.9318 12.443,12.3338 L12.443,19.8398 L7.788,19.8398 C7.788,19.8398 7.848,7.2808 7.788,6.0198 L12.443,6.0198 L12.443,7.9238 C13.041,7.0098 14.111,5.7028 16.509,5.7028 C19.476,5.7028 21.56,8.0078 21.56,12.1348 L21.56,19.8398 Z" id="Fill-3" fill="#FFFFFF" mask="url(#mask-2)"></path>
                    </g>
                </g>
            </g>
        </g>
    </g>
</svg>