<?xml version="1.0" encoding="UTF-8"?>
<svg width="199px" height="145px" viewBox="0 0 199 145" version="1.1" xmlns="http://www.w3.org/2000/svg" xmlns:xlink="http://www.w3.org/1999/xlink">
    <!-- Generator: Sketch 51.3 (57544) - http://www.bohemiancoding.com/sketch -->
    <title>Logo</title>
    <desc>Created with Sketch.</desc>
    <defs>
        <polygon id="path-1" points="0.0188965517 0.142377293 136.897644 0.142377293 136.897644 105.991985 0.0188965517 105.991985"></polygon>
    </defs>
    <g id="Page-1" stroke="none" stroke-width="1" fill="none" fill-rule="evenodd">
        <g id="Home_1920" transform="translate(-125.000000, -88.000000)">
            <g id="Logo" transform="translate(125.000000, 88.000000)">
                <path d="M137,49.3052436 L137,15.2775641 L124.308921,15.2775641 L124.308921,18.6805782 L124.238239,18.6805782 C121.826874,15.9723205 118.565752,14.5825 115.162322,14.5825 C106.511442,14.5825 99.7758934,21.8051359 99.7758934,32.2914039 C99.7758934,42.7776718 106.440445,50 115.942655,50 C119.771434,50 122.818939,48.7495615 124.876264,46.110841 L124.946004,46.110841 L124.946004,49.3052436 L137,49.3052436 Z M124.876264,32.2914039 C124.876264,36.4571731 122.109603,39.1669692 118.777484,39.1669692 C115.162322,39.1669692 112.608965,36.4571731 112.608965,32.2914039 C112.608965,28.2628628 115.162322,25.485068 118.777484,25.485068 C122.109603,25.485068 124.876264,28.2628628 124.876264,32.2914039 Z M60,49.2637059 L95.1143196,0 L82.2627136,0 L82.2611429,0.0033845529 L77.4302459,0.0033845529 L60,24.5266241 L60,49.2637059 Z M86.7515085,29.0093106 L78.3312091,40.8306308 L83.468396,49.3052436 L99.9891967,49.3052436 L86.7515085,29.0093106 Z" id="Fill-1" fill="#000000"></path>
                <g id="Group-5" transform="translate(0.000000, 39.000000)">
                    <mask id="mask-2" fill="white">
                        <use xlink:href="#path-1"></use>
                    </mask>
                    <g id="Clip-3"></g>
                    <path d="M136.897644,82.0469717 C134.609271,74.4547817 127.714234,69.5721897 118.667825,69.5721897 C107.365483,69.5721897 99.5467195,76.9992221 99.5467195,87.7822455 C99.5467195,98.5649525 107.365483,105.991985 118.667825,105.991985 C119.226533,105.991985 119.769494,105.959396 120.311195,105.922062 L136.897644,82.0469717 Z M124.923529,87.7822455 C124.923529,91.8526541 122.220692,94.7808804 118.667825,94.7808804 C115.042207,94.7808804 112.340945,91.8526541 112.340945,87.7822455 C112.340945,83.7115205 114.970715,80.8547992 118.667825,80.8547992 C122.363676,80.8547992 124.923529,83.7115205 124.923529,87.7822455 Z M75.5928207,87.710424 C75.5928207,83.7115205 78.2222759,80.8547992 82.2028345,80.8547992 C85.0464506,80.8547992 87.1071195,82.1409407 88.6708092,83.997857 L97.0580437,76.7859725 C93.576669,72.0005135 87.6759057,69.5721897 81.9178115,69.5721897 C70.615469,69.5721897 62.7967057,76.9992221 62.7967057,87.7822455 C62.7967057,98.5649525 70.615469,105.991985 81.065577,105.991985 C88.7419862,105.991985 94.2862345,103.064075 97.2722046,99.3496096 L88.5993172,91.8526541 C87.5332368,93.1368973 85.6149218,94.7093754 82.3458184,94.7093754 C78.2934529,94.7093754 75.5928207,91.7811491 75.5928207,87.710424 Z" id="Fill-2" fill="#000000" mask="url(#mask-2)"></path>
                    <path d="M55.9611931,17.5541711 L55.9407218,15.3523853 C55.9407218,4.06977583 50.6818115,0.142377293 43.5011218,0.142377293 C38.8109977,0.142377293 34.9016161,1.85628351 32.1990943,5.14076946 L32.129177,5.14076946 C29.9258391,1.56963056 26.3713977,0.142377293 22.1055011,0.142377293 C18.5523195,0.142377293 15.2117241,1.71295703 12.7942253,4.85443291 L12.7230483,4.85443291 L12.7230483,0.855212941 L0,0.855212941 L0,35.8458565 L12.7230483,35.8458565 L12.7230483,18.2787133 C12.7230483,13.495469 14.7141149,11.4249868 17.557731,11.4249868 C20.8271494,11.4249868 21.7505609,14.4946412 21.7505609,18.2787133 L21.7505609,35.8458565 L34.4040069,35.8458565 L34.4040069,18.2787133 C34.4040069,13.495469 36.4646759,11.4249868 39.022954,11.4249868 C42.4350414,11.4249868 43.2176736,14.4946412 43.2176736,18.2787133 L43.2381448,35.798081 L55.9611931,17.5541711" id="Fill-4" fill="#000000" mask="url(#mask-2)"></path>
                </g>
                <path d="M199,33.5562369 L198.97983,31.3364645 C198.97983,19.960051 193.717243,16 186.531533,16 C181.837815,16 177.9257,17.7281557 175.221289,21.0396299 L175.151638,21.0396299 C172.94676,17.4391195 169.389519,16 165.12064,16 C161.565289,16 158.222359,17.5833186 155.80317,20.7509128 L155.731943,20.7509128 L155.731943,16.7187622 L143,16.7187622 L143,52 L155.731943,52 L155.731943,34.287122 C155.731943,29.4637907 157.724401,27.3764135 160.570006,27.3764135 C163.84171,27.3764135 164.765767,30.4712701 164.765767,34.287122 L164.765767,52 L177.428058,52 L177.428058,34.287122 C177.428058,29.4637907 179.490168,27.3764135 182.050235,27.3764135 C185.464707,27.3764135 186.247572,30.4712701 186.247572,34.287122 L186.268372,51.9518273 L199,33.5562369" id="Fill-6" fill="#000000"></path>
                <path d="M86.3851075,63.7064956 L86.3851075,67.1654779 L86.3145355,67.1654779 C83.9175873,64.4126784 80.6759615,63 77.2928795,63 C68.695592,63 62,70.3414242 62,81.0001564 C62,91.6588885 68.62502,99 78.0688587,99 C81.8744356,99 84.9055946,97.728996 86.9487463,95.0471901 L87.0196305,95.0471901 L87.0196305,98.2938172 L99,98.2938172 L99,63.7064956 L86.3851075,63.7064956 Z M80.8879896,87.9875509 C77.2928795,87.9875509 74.7563487,85.2344387 74.7563487,81.0001564 C74.7563487,76.9053593 77.2928795,74.0818789 80.8879896,74.0818789 C84.2001874,74.0818789 86.9487463,76.9053593 86.9487463,81.0001564 C86.9487463,85.2344387 84.2001874,87.9875509 80.8879896,87.9875509 Z" id="Fill-7" fill="#000000"></path>
            </g>
        </g>
    </g>
</svg>